<svg xmlns="http://www.w3.org/2000/svg" viewBox="0 0 5616 3744"><filter id="b"><feGaussianBlur stdDeviation="12" /></filter><path fill="#959388" d="M0 0h5616v3729H0z"/><g filter="url(#b)" transform="translate(11 11) scale(21.9375)" fill-opacity=".5"><ellipse fill="#090600" rx="1" ry="1" transform="rotate(95.7 -30.8 75.4) scale(35.42365 122.88502)"/><ellipse fill="#fefdf6" rx="1" ry="1" transform="matrix(78.50612 83.0179 -53.51076 50.60261 201.6 48.7)"/><ellipse fill="#444137" cx="9" cy="108" rx="69" ry="108"/><ellipse fill="#d4ccc0" rx="1" ry="1" transform="matrix(-9.5446 .54988 -4.29319 -74.52005 90.6 60.7)"/><path fill="#15100d" d="M97.5 89.8l7.4 65 62.6-57.5-42 2.9z"/><ellipse fill="#eae5da" rx="1" ry="1" transform="matrix(-66.54893 18.22195 -6.62945 -24.21163 174 56.9)"/><path fill="#a8a397" d="M74 0h78v61H74z"/><path fill="#9c937d" d="M28 142h76v28H28z"/></g></svg>