<svg xmlns="http://www.w3.org/2000/svg" viewBox="0 0 1024 683"><filter id="b"><feGaussianBlur stdDeviation="12" /></filter><path fill="#999a99" d="M0 0h1024v680H0z"/><g filter="url(#b)" transform="matrix(4 0 0 4 2 2)" fill-opacity=".5"><ellipse fill="#f0f4f2" rx="1" ry="1" transform="rotate(173.8 115.6 21.8) scale(15.80142 52.04553)"/><ellipse fill="#494844" rx="1" ry="1" transform="matrix(-5.90179 -9.92925 46.5536 -27.67072 166.9 86.4)"/><ellipse fill="#c2c3c1" cx="94" cy="24" rx="80" ry="30"/><ellipse fill="#60615e" rx="1" ry="1" transform="matrix(3.05977 18.74392 -81.34045 13.27808 123.8 169)"/><ellipse fill="#d0d5d5" rx="1" ry="1" transform="matrix(32.3208 -11.07313 5.13943 15.0012 82 139)"/><path fill="#fafcfc" d="M138.1 70.2l-10.5 26-15.7-6.4 10.5-26z"/><ellipse fill="#6c6d6a" rx="1" ry="1" transform="matrix(-14.61456 -16.33065 27.40076 -24.52138 238 122.1)"/><path fill="#5a5a56" d="M72 79h27v43H72z"/></g></svg>