<svg xmlns="http://www.w3.org/2000/svg" viewBox="0 0 1024 683"><filter id="b"><feGaussianBlur stdDeviation="12" /></filter><path fill="#aca397" d="M0 0h1024v680H0z"/><g filter="url(#b)" transform="matrix(4 0 0 4 2 2)" fill-opacity=".5"><ellipse fill="#fff" cx="44" rx="96" ry="96"/><ellipse fill="#58412a" rx="1" ry="1" transform="rotate(155.1 81.3 98.2) scale(140.94427 46.08918)"/><ellipse fill="#81786b" rx="1" ry="1" transform="matrix(-10.09566 30.84878 -60.34805 -19.74968 191.5 73)"/><path d="M190 159l12-23-44 17zM70 86h9v22h-9z"/><ellipse fill="#f9f9f6" rx="1" ry="1" transform="matrix(15.69685 24.82996 -54.46334 34.4303 45.4 33.4)"/><ellipse fill="#bdbdb9" rx="1" ry="1" transform="matrix(20.53553 -74.55379 30.91826 8.5163 135 0)"/><ellipse fill="#dfe4e8" cx="210" cy="27" rx="11" ry="47"/></g></svg>