<svg xmlns="http://www.w3.org/2000/svg" viewBox="0 0 1920 1280"><filter id="c"><feGaussianBlur stdDeviation="55" /></filter><path fill="#9ca0a5" d="M0 0h1920v1275H0z"/><g filter='url(#c)' fill-opacity='.5'><ellipse fill="#34393f" fill-opacity=".5" rx="1" ry="1" transform="rotate(-27.7 2337.7 -257.3) scale(851.11766 197.0992)"/><ellipse fill="#e5edf7" fill-opacity=".5" rx="1" ry="1" transform="matrix(-106.27115 625.87174 -495.42028 -84.12088 1781 645.4)"/><ellipse fill="#454345" fill-opacity=".5" rx="1" ry="1" transform="matrix(-67.78018 278.25561 -90.82867 -22.12492 1028.2 539.7)"/><ellipse fill="#636566" fill-opacity=".5" rx="1" ry="1" transform="matrix(137.86235 302.02576 -155.13815 70.8142 553.5 162.4)"/><path fill="#c5d0dc" fill-opacity=".5" d="M807.9 798l-204.4 74.4-53.9-148L754 650.1z"/><ellipse fill="#c4cad1" fill-opacity=".5" rx="1" ry="1" transform="matrix(274.28817 140.61096 -84.19764 164.24337 198.1 349.8)"/><ellipse fill="#424850" fill-opacity=".5" rx="1" ry="1" transform="rotate(136.9 105 658.9) scale(511.50887 76.7542)"/><path fill="#272728" fill-opacity=".5" d="M869.3 894L530.4 997.4l532.4-281.9 169.1 32.3z"/></g></svg>