<svg xmlns="http://www.w3.org/2000/svg" viewBox="0 0 3176 2312"><filter id="c"><feGaussianBlur stdDeviation="55" /></filter><path fill="#8a8d8c" d="M0 0h3176v2307H0z"/><g filter='url(#c)' fill-opacity='.5'><ellipse fill="#080400" fill-opacity=".5" rx="1" ry="1" transform="matrix(129.75767 632.1301 -1015.7922 208.5122 1398.7 1591.6)"/><ellipse fill="#d9dcdc" fill-opacity=".5" rx="1" ry="1" transform="matrix(3152.47849 264.96188 -47.34316 563.28219 1994 432.5)"/><ellipse fill="#44433c" fill-opacity=".5" rx="1" ry="1" transform="matrix(-255.08075 -358.93349 544.73083 -387.12005 1490.8 951.7)"/><ellipse fill="#dedad7" fill-opacity=".5" rx="1" ry="1" transform="matrix(-381.62393 -157.16314 216.45759 -525.60286 363.2 803.6)"/><ellipse fill="#b0c2d3" fill-opacity=".5" rx="1" ry="1" transform="matrix(-1040.55423 803.4854 -242.09797 -313.52911 2575.5 2202)"/><ellipse fill="#c6d1dc" fill-opacity=".5" rx="1" ry="1" transform="rotate(170.4 1345.3 182.8) scale(729.3156 1113.69388)"/><path fill="#2d2e2b" fill-opacity=".5" d="M2707 1471.4l-201.3 334L155.2 1520l1069.9-338.6z"/><ellipse fill="#949da1" fill-opacity=".5" rx="1" ry="1" transform="rotate(50.9 153.8 2665) scale(695.87414 201.92411)"/></g></svg>