<svg xmlns="http://www.w3.org/2000/svg" viewBox="0 0 1100 825"><filter id="b"><feGaussianBlur stdDeviation="12" /></filter><path fill="#adadae" d="M0 0h1100v825H0z"/><g filter="url(#b)" transform="translate(2.1 2.1) scale(4.29688)" fill-opacity=".5"><ellipse fill="#383a35" rx="1" ry="1" transform="matrix(-13.33492 -24.15456 38.76047 -21.39835 203.7 151.6)"/><path d="M68.5 90.3l25 29.9-16 13.5-25-29.9z"/><ellipse fill="#f2f4f3" rx="1" ry="1" transform="matrix(-254.91648 6.52599 -.41973 -16.39557 108 11.2)"/><ellipse fill="#63676d" rx="1" ry="1" transform="rotate(133.3 79.2 68.5) scale(15.38736 45.5772)"/><path fill="#323637" d="M139.5 150l-77-36.4 130.9 34.3 11.2 33.5z"/><path fill="#e4e0e6" d="M131 124l9.7-33.6 68.2 19.6-9.6 33.6z"/><ellipse fill="#d0cfd0" cx="44" cy="44" rx="81" ry="48"/><path fill="#8d8d90" d="M70 130L14 6 8 190z"/></g></svg>