<svg xmlns="http://www.w3.org/2000/svg" viewBox="0 0 3841 2890"><filter id="b"><feGaussianBlur stdDeviation="12" /></filter><path fill="#595959" d="M0 0h3841v2880H0z"/><g filter="url(#b)" transform="translate(7.5 7.5) scale(15.0039)" fill-opacity=".5"><ellipse fill="#e8e8e8" rx="1" ry="1" transform="rotate(10.1 -312.4 1032.2) scale(42.85789 70.24402)"/><ellipse fill="#0f0f0f" rx="1" ry="1" transform="matrix(-87.62757 57.1237 -18.23868 -27.97808 50.5 97.4)"/><path fill="#121212" d="M228 207L216 49l53 131z"/><ellipse fill="#1b1b1b" cx="73" cy="185" rx="155" ry="9"/><ellipse fill="#181818" rx="1" ry="1" transform="matrix(-22.19583 -20.48266 32.93163 -35.68605 113.6 0)"/><path d="M184.2 153.7l-1.4-26 27-1.4 1.4 26z"/><path fill="#c7c7c7" d="M224.4 146.3l-11.7 2.7-15-65.3 11.6-2.7z"/><path d="M182.7 1.6l7.9-21.6 50.7 18.4-7.9 21.6z"/></g></svg>