<svg xmlns="http://www.w3.org/2000/svg" viewBox="0 0 2765 3788"><filter id="b"><feGaussianBlur stdDeviation="12" /></filter><path fill="#878787" d="M0 0h2767v3788H0z"/><g filter="url(#b)" transform="translate(7.4 7.4) scale(14.79688)" fill-opacity=".5"><ellipse fill="#2f2f2f" rx="1" ry="1" transform="matrix(43.74924 26.97711 -97.62515 158.32034 157.6 211.6)"/><ellipse fill="#bcbcbc" rx="1" ry="1" transform="matrix(132.18406 -130.85631 45.34957 45.80972 60.1 56.7)"/><ellipse fill="#393939" rx="1" ry="1" transform="matrix(-5.7268 8.81381 -48.28078 -31.37059 144 106.4)"/><path fill="#4e4e4e" d="M96 271l44-97-149 75z"/><path fill="#c1c1c1" d="M126 103l13 81L2 58z"/><ellipse fill="#cfcfcf" cx="167" cy="49" rx="19" ry="31"/><ellipse fill="#e8e8e8" rx="1" ry="1" transform="rotate(-156.9 87.8 99) scale(3.41101 36.26215)"/><ellipse fill="#474747" rx="1" ry="1" transform="matrix(2.81449 -27.25074 12.15238 1.25511 0 122.5)"/></g></svg>