<svg xmlns="http://www.w3.org/2000/svg" viewBox="0 0 998 719"><filter id="b"><feGaussianBlur stdDeviation="12" /></filter><path fill="#7e7a75" d="M0 0h998v717H0z"/><g filter="url(#b)" transform="translate(2 2) scale(3.89844)" fill-opacity=".5"><ellipse fill="#e7ebea" rx="1" ry="1" transform="matrix(-37.99883 -21.37518 43.75386 -77.78158 250.8 87.2)"/><ellipse cx="20" cy="11" rx="170" ry="23"/><ellipse fill="#f9f8f3" rx="1" ry="1" transform="matrix(45.60151 -51.19969 24.08543 21.45193 16.7 97.2)"/><ellipse fill="#080000" rx="1" ry="1" transform="matrix(-11.8852 24.2457 -75.0555 -36.7921 32.5 183)"/><ellipse fill="#dbdfe1" rx="1" ry="1" transform="matrix(11.97264 22.51019 -35.94055 19.11593 177.9 56.1)"/><ellipse rx="1" ry="1" transform="rotate(-90.4 167.5 10.7) scale(6.35598 93.62899)"/><path fill="#0c0a0c" d="M162.6 138.5l-20-23.8 46.8-39.2 20 23.8z"/><ellipse fill="#070b12" rx="1" ry="1" transform="matrix(29.31662 2.27425 -1.46609 18.8989 71.7 119.8)"/></g></svg>