<svg xmlns="http://www.w3.org/2000/svg" viewBox="0 0 2000 1500"><filter id="b"><feGaussianBlur stdDeviation="12" /></filter><path fill="#746f65" d="M0 0h2000v1500H0z"/><g filter="url(#b)" transform="translate(4 4) scale(7.8125)" fill-opacity=".5"><ellipse fill="#fff" rx="1" ry="1" transform="matrix(5.947 27.4998 -43.83543 9.4797 155.8 131)"/><ellipse fill="#0b0000" rx="1" ry="1" transform="matrix(41.01335 36.79918 -22.9414 25.56861 78.2 81.3)"/><ellipse fill="#fff" rx="1" ry="1" transform="matrix(-86.71322 4.98446 -1.12707 -19.60735 178.5 0)"/><ellipse rx="1" ry="1" transform="matrix(43.45126 -26.6829 9.74486 15.86883 207.4 159)"/><ellipse fill="#441300" cx="46" cy="9" rx="44" ry="44"/><ellipse fill="#000004" rx="1" ry="1" transform="rotate(35.1 -205 251) scale(31.12259 19.0885)"/><ellipse fill="#fcffff" cx="151" cy="134" rx="33" ry="30"/><ellipse fill="#c11b0a" rx="1" ry="1" transform="matrix(-32.73645 4.72374 -3.19395 -22.1347 85 49.7)"/></g></svg>