<svg xmlns="http://www.w3.org/2000/svg" viewBox="0 0 2000 2667"><filter id="b"><feGaussianBlur stdDeviation="12" /></filter><path fill="#767676" d="M0 0h2000v2667H0z"/><g filter="url(#b)" transform="translate(5.2 5.2) scale(10.41797)" fill-opacity=".5"><ellipse fill="#fff" cx="87" cy="255" rx="89" ry="55"/><ellipse fill="#191919" rx="1" ry="1" transform="matrix(-48.33326 41.12384 -40.55537 -47.66512 0 146.7)"/><ellipse fill="#282828" rx="1" ry="1" transform="matrix(11.05103 -30.5398 178.47612 64.58276 128.7 39.8)"/><path fill="#f7f7f7" d="M56 222l33-47-55 3z"/><path fill="#bebebe" d="M47.4 87.5l7.3-104.8 26 1.8-7.4 104.8z"/><path fill="#d2d2d2" d="M193.7 102.2l20.4 8.2-33.8 83.4-20.4-8.2z"/><ellipse fill="#fff" rx="1" ry="1" transform="rotate(157.6 -10 125.5) scale(36.70811 16.6227)"/><path fill="#d0d0d0" d="M186.6 6.9l-40.8 19-14.4-30.8 40.8-19z"/></g></svg>