<svg xmlns="http://www.w3.org/2000/svg" viewBox="0 0 2000 1500"><filter id="b"><feGaussianBlur stdDeviation="12" /></filter><path fill="#787670" d="M0 0h2000v1500H0z"/><g filter="url(#b)" transform="translate(4 4) scale(7.8125)" fill-opacity=".5"><ellipse fill="#321e10" cx="23" cy="135" rx="68" ry="137"/><ellipse fill="#b9cfd1" rx="1" ry="1" transform="rotate(-156.1 98.7 -2.6) scale(137.33899 63.37921)"/><ellipse fill="#fff" rx="1" ry="1" transform="matrix(16.4101 .6591 -1.37367 34.2014 107.1 11)"/><ellipse fill="#8b8f87" rx="1" ry="1" transform="matrix(-13.93984 46.76025 -55.31986 -16.49157 150.1 94)"/><ellipse fill="#8a9385" rx="1" ry="1" transform="matrix(19.29057 -54.20292 11.91421 4.24021 63.2 31.3)"/><ellipse fill="#463423" rx="1" ry="1" transform="matrix(112.80171 4.53058 -.60734 15.12135 84.5 163.1)"/><ellipse fill="#dbe8ff" rx="1" ry="1" transform="matrix(14.19022 .45024 -1.04294 32.87044 237.8 6)"/><ellipse fill="#818d95" rx="1" ry="1" transform="matrix(24.20062 4.243 -11.68339 66.63794 241 108.5)"/></g></svg>