<svg xmlns="http://www.w3.org/2000/svg" viewBox="0 0 5616 3744"><filter id="c"><feGaussianBlur stdDeviation="55" /></filter><path fill="#9f9c91" d="M0 0h5616v3729H0z"/><g filter='url(#c)' fill-opacity='.5'><ellipse fill="#f8fbf6" fill-opacity=".5" rx="1" ry="1" transform="matrix(-938.4593 -523.30243 643.41721 -1153.86596 3246 1089.6)"/><ellipse fill="#4e473b" fill-opacity=".5" rx="1" ry="1" transform="rotate(105.7 -602.3 2018) scale(1652.41635 1130.34559)"/><path fill="#f1f7f6" fill-opacity=".5" d="M11 603.3h1140.7v1184.6H11z"/><ellipse fill="#464843" fill-opacity=".5" rx="1" ry="1" transform="matrix(229.21974 1590.67481 -342.22775 49.31577 1620.2 1143.6)"/><ellipse fill="#635740" fill-opacity=".5" rx="1" ry="1" transform="matrix(370.61975 428.95179 -3160.1636 2730.42118 5359.2 3211.6)"/><path fill="#bab9ac" fill-opacity=".5" d="M5780.5 1678.2L998.2 3126.1 5956 11z"/><ellipse fill="#eff0ea" fill-opacity=".5" rx="1" ry="1" transform="matrix(-758.87688 786.2524 -320.68757 -309.52196 2973.9 1520.3)"/><path fill="#4c4e49" fill-opacity=".5" d="M1007.8 158.7L186 524.6l-294.4-661.4 821.6-365.8z"/></g></svg>