<svg xmlns="http://www.w3.org/2000/svg" viewBox="0 0 2784 1856"><filter id="b"><feGaussianBlur stdDeviation="12" /></filter><path fill="#919188" d="M0 0h2784v1848H0z"/><g filter="url(#b)" transform="translate(5.4 5.4) scale(10.875)" fill-opacity=".5"><ellipse fill="#d0d3cc" rx="1" ry="1" transform="rotate(27.9 78.8 317.6) scale(77.99721 51.83894)"/><ellipse fill="#484435" rx="1" ry="1" transform="matrix(-1.49095 34.14827 -30.22001 -1.31943 244.8 139.3)"/><ellipse fill="#141109" rx="1" ry="1" transform="matrix(11.08932 -.03719 .07338 21.88147 175.5 97.7)"/><ellipse rx="1" ry="1" transform="matrix(.6135 13.06592 -9.51627 .44683 139.3 151.3)"/><ellipse fill="#51524d" cx="43" cy="16" rx="28" ry="38"/><path fill="#deddd3" d="M146 123h63v20h-63z"/><ellipse fill="#534d3f" rx="1" ry="1" transform="matrix(2.57183 -31.04947 10.31968 .85478 242.3 67.2)"/><ellipse fill="#f8fbf4" rx="1" ry="1" transform="matrix(27.00816 -4.358 3.1522 19.53535 193.3 0)"/></g></svg>