<svg xmlns="http://www.w3.org/2000/svg" viewBox="0 0 5616 3744"><filter id="b"><feGaussianBlur stdDeviation="12" /></filter><path fill="#a0a097" d="M0 0h5616v3729H0z"/><g filter="url(#b)" transform="translate(11 11) scale(21.9375)" fill-opacity=".5"><path fill="#f8fdfd" d="M114.7 90.5l-94.2-66 56.8-81 94.2 66z"/><ellipse fill="#615f55" rx="1" ry="1" transform="matrix(-36.29325 49.68457 -53.89817 -39.37116 241.4 99.6)"/><ellipse fill="#f3f7f4" rx="1" ry="1" transform="matrix(18.85177 -27.64087 16.60547 11.32535 203.5 11.7)"/><ellipse fill="#746a59" rx="1" ry="1" transform="matrix(-2.4099 -22.237 71.8985 -7.7919 21.3 148)"/><ellipse fill="#5c564c" cx="29" cy="61" rx="21" ry="19"/><path fill="#2e2a1c" d="M236 111l35 44-51-12z"/><path fill="#8b8a81" d="M128 110l8-86 135 65z"/><ellipse fill="#dadcd9" rx="1" ry="1" transform="matrix(-33.36565 67.38482 -18.99228 -9.40404 87.7 30.2)"/></g></svg>