<svg xmlns="http://www.w3.org/2000/svg" viewBox="0 0 2784 1856"><filter id="b"><feGaussianBlur stdDeviation="12" /></filter><path fill="#9b968b" d="M0 0h2784v1848H0z"/><g filter="url(#b)" transform="translate(5.4 5.4) scale(10.875)" fill-opacity=".5"><path d="M179 115L29 140l46-86z"/><ellipse fill="#fff" rx="1" ry="1" transform="rotate(94.6 28.3 30) scale(52.13323 84.91055)"/><path fill="#d7ddda" d="M261-24.1l24.8 81.3-94.7 29-24.9-81.4z"/><ellipse rx="1" ry="1" transform="rotate(-102 85 16.8) scale(35.6977 19.76249)"/><ellipse fill="#7f6b51" rx="1" ry="1" transform="matrix(.33517 31.66325 -76.46164 .80938 38 156.6)"/><ellipse fill="#826f61" rx="1" ry="1" transform="matrix(31.39692 12.55787 -11.20715 28.01988 120.4 61.5)"/><ellipse fill="#e3e6e5" cx="54" cy="42" rx="22" ry="39"/><ellipse fill="#999384" rx="1" ry="1" transform="matrix(28.10823 -20.12352 9.1515 12.78268 133.8 110.8)"/></g></svg>