<svg xmlns="http://www.w3.org/2000/svg" viewBox="0 0 3024 4032"><filter id="b"><feGaussianBlur stdDeviation="12" /></filter><path fill="#7e725f" d="M0 0h3024v4032H0z"/><g filter="url(#b)" transform="translate(7.9 7.9) scale(15.75)" fill-opacity=".5"><ellipse fill="#fff" rx="1" ry="1" transform="matrix(-28.53433 -3.78068 14.03108 -105.89826 180.3 33)"/><ellipse fill="#3f2913" rx="1" ry="1" transform="matrix(-29.9641 26.93501 -65.10251 -72.4239 122.3 218.2)"/><ellipse fill="#fff" rx="1" ry="1" transform="matrix(-48.0511 -83.22696 23.97299 -13.84081 191 38.9)"/><ellipse fill="#25291f" rx="1" ry="1" transform="matrix(-23.57822 20.27706 -37.25336 -43.3183 57.5 0)"/><ellipse fill="#a6a694" cy="87" rx="56" ry="70"/><path d="M58.5 136.2l13.2-10.7 35.8 44.3-13.2 10.7z"/><ellipse fill="#a4896e" cx="191" cy="139" rx="54" ry="54"/><ellipse fill="#725d3e" rx="1" ry="1" transform="matrix(54.19726 .09483 -.11655 66.61292 49.1 224.2)"/></g></svg>