<svg xmlns="http://www.w3.org/2000/svg" viewBox="0 0 3024 4032"><filter id="c"><feGaussianBlur stdDeviation="55" /></filter><path fill="#888" d="M0 0h3024v4032H0z"/><g filter='url(#c)' fill-opacity='.5'><ellipse fill="#e3e3e3" fill-opacity=".5" rx="1" ry="1" transform="matrix(-1229.97923 -774.55926 355.83989 -565.06415 682.1 787.5)"/><ellipse fill="#2d2d2d" fill-opacity=".5" rx="1" ry="1" transform="matrix(686.54371 653.3572 -816.4152 857.88404 820.1 4024.1)"/><ellipse fill="#363636" fill-opacity=".5" rx="1" ry="1" transform="rotate(164.2 1304.5 530.4) scale(549.71897 1038.79814)"/><path fill-opacity=".5" d="M2449.1 2023.9l-63-614.3-488.2 393.8z"/><path fill="#b6b6b6" fill-opacity=".5" d="M984.4 3362.6l1795.5 330.8 315-945z"/><path fill="#101010" fill-opacity=".5" d="M285.7 3698.6l-98-498.7 612.5 234 185 611.8z"/><ellipse fill="#c5c5c5" fill-opacity=".5" rx="1" ry="1" transform="matrix(-576.83323 365.60072 -120.19365 -189.63773 965.7 2170.5)"/><ellipse fill="#fff" fill-opacity=".5" rx="1" ry="1" transform="matrix(359.32574 349.67491 -137.07083 140.85391 1245.6 857.6)"/></g></svg>