<svg xmlns="http://www.w3.org/2000/svg" viewBox="0 0 5616 3744"><filter id="b"><feGaussianBlur stdDeviation="12" /></filter><path fill="#aaacaa" d="M0 0h5616v3729H0z"/><g filter="url(#b)" transform="translate(11 11) scale(21.9375)" fill-opacity=".5"><path fill="#fff" d="M27 92.1l42.2-147L149-32.2l-42.2 147z"/><ellipse fill="#505351" cx="196" cy="169" rx="63" ry="63"/><ellipse fill="#4b4e4c" rx="1" ry="1" transform="rotate(21.2 -401.7 183.5) scale(110.90725 40.68553)"/><ellipse fill="#ebeae5" rx="1" ry="1" transform="rotate(90.1 113 133) scale(77.66848 60.708)"/><ellipse fill="#434440" rx="1" ry="1" transform="matrix(-15.74253 .5341 -5.45013 -160.6446 0 78.9)"/><ellipse fill="#fff" rx="1" ry="1" transform="matrix(6.70716 -49.67342 29.52668 3.98685 84 23.7)"/><ellipse fill="#d1d3d4" rx="1" ry="1" transform="matrix(-1.755 -61.43453 9.78294 -.27947 31 108.9)"/><ellipse fill="#909290" rx="1" ry="1" transform="matrix(-57.32862 11.59158 -5.06412 -25.04566 178.8 119.5)"/></g></svg>