<svg xmlns="http://www.w3.org/2000/svg" viewBox="0 0 2502 1856"><filter id="b"><feGaussianBlur stdDeviation="12" /></filter><path fill="#a4a59e" d="M0 0h2502v1847H0z"/><g filter="url(#b)" transform="translate(4.9 4.9) scale(9.77344)" fill-opacity=".5"><ellipse fill="#46453b" rx="1" ry="1" transform="matrix(-31.56859 -31.45859 108.0834 -108.46134 227.2 152)"/><ellipse fill="#d7dad8" cx="100" cy="53" rx="131" ry="63"/><ellipse fill="#66583f" rx="1" ry="1" transform="matrix(.29702 -63.76794 54.16212 .25228 29.7 175.2)"/><path fill="#504f49" d="M233 33h23v156h-23z"/><path fill="#585b56" d="M25.6 63l3.4 50.4 5 85.7L45.3 40z"/><ellipse fill="#f1f4f1" rx="1" ry="1" transform="matrix(13.62184 8.7441 -24.88142 38.76108 96.9 33.1)"/><path fill="#eaeeec" d="M195 117h17v25h-17z"/><ellipse fill="#87877d" rx="1" ry="1" transform="rotate(5.2 -90.6 662.6) scale(21.24293 37.58774)"/></g></svg>