<svg xmlns="http://www.w3.org/2000/svg" viewBox="0 0 2784 1856"><filter id="b"><feGaussianBlur stdDeviation="12" /></filter><path fill="#929691" d="M0 0h2784v1848H0z"/><g filter="url(#b)" transform="translate(5.4 5.4) scale(10.875)" fill-opacity=".5"><ellipse fill="#fff" rx="1" ry="1" transform="rotate(85.1 107 145.3) scale(57.24798 20.66871)"/><ellipse fill="#2b2c26" rx="1" ry="1" transform="matrix(46.09935 -25.86975 7.3273 13.0571 167.3 84.9)"/><ellipse fill="#d5d9d5" rx="1" ry="1" transform="matrix(-91.09076 -25.3581 5.8485 -21.00883 99.5 9.2)"/><ellipse fill="#5c605a" cx="166" cy="158" rx="66" ry="28"/><ellipse fill="#dce5e4" rx="1" ry="1" transform="matrix(6.14762 16.24607 -30.71075 11.62114 81 143.3)"/><path fill="#52554e" d="M201.4 115.3l47.3-19.1 18 44.5-47.4 19.1z"/><path fill="#454640" d="M69 79h39v42H69z"/><path fill="#fdffff" d="M136.7 68.7l-7.2 29.1-26.2-6.5 7.2-29.1z"/></g></svg>