<svg xmlns="http://www.w3.org/2000/svg" viewBox="0 0 1020 680"><filter id="b"><feGaussianBlur stdDeviation="12" /></filter><path fill="#8b8f95" d="M0 0h1020v677H0z"/><g filter="url(#b)" transform="translate(2 2) scale(3.98438)" fill-opacity=".5"><ellipse fill="#d9e1ea" cx="180" cy="37" rx="35" ry="67"/><ellipse fill="#090d10" rx="1" ry="1" transform="matrix(-28.25002 -20.5805 9.95616 -13.66642 236.2 139.8)"/><ellipse fill="#d6dae2" rx="1" ry="1" transform="matrix(-23.37134 2.62829 -5.40857 -48.09425 66 17.2)"/><ellipse fill="#3f4244" rx="1" ry="1" transform="matrix(27.14591 17.17675 -16.38875 25.90056 247.6 17.6)"/><path fill="#55595f" d="M54 110.2l75.7 6.9 7.1-51.3-89.4-2.3z"/><ellipse fill="#3e3f40" cx="7" cy="65" rx="20" ry="36"/><ellipse fill="#586173" rx="1" ry="1" transform="rotate(176 76.5 75) scale(40.06962 16.97966)"/><ellipse fill="#a6adb6" rx="1" ry="1" transform="matrix(57.55539 -19.07473 8.80096 26.55571 186.5 78.4)"/></g></svg>